<svg width="112" height="111" viewBox="0 0 112 111" fill="none" xmlns="http://www.w3.org/2000/svg">
<ellipse cx="56" cy="61.5" rx="55" ry="43.5" fill="#200000"/>
<g filter="url(#filter0_d_0_1)">
<ellipse cx="56" cy="60.5" rx="52" ry="42.5" fill="#FF5757"/>
</g>
<path d="M48 32.5C45.8333 32.6667 40.8 32.5 38 30.5C35.2 28.5 43.5 25.3333 48 24C45.8333 20.8333 41.8 14.3 43 13.5C44.5 12.5 54 14 52.5 16C51.3 17.6 54 11.5 58.5 13.5L63 18" stroke="#15E610" stroke-width="2"/>
<path d="M48 32C49.1667 35.3333 51.9 42.1 53.5 42.5C55.1 42.9 58.5 35.6667 60 32C62.3333 34.1667 67.3 38.1 68.5 36.5C70 34.5 68.5 30 67 28C65.8 26.4 73.8333 23.6667 78 22.5C74.8333 18.8333 67.4 12.9 63 18.5" stroke="#15E510" stroke-width="2"/>
<path d="M54 24C53.1667 17 52.3 2.7 55.5 1.5C58.7 0.3 59.5 1 59.5 1.5C58.3333 9 56.9 24 60.5 24" stroke="#139911"/>
<path d="M57.103 33.2054C56.8537 33.1805 56.6796 32.6629 56.5647 32.478C56.5327 32.4265 56.4709 32.251 56.3835 32.26C56.169 32.2822 55.9557 32.7115 55.853 32.8588C55.2968 33.6563 54.7639 34.5434 54.3903 35.4429C54.3046 35.6491 54.2387 36.2307 53.9333 36.2307C53.5003 36.2307 53.4022 35.8192 53.3424 35.4376C53.2497 34.8454 53.3408 34.2019 53.6523 33.6886C54.5213 32.2566 55.9744 31.4458 57.2186 30.4007C57.4087 30.241 57.5949 30.3155 57.6125 30.5635C57.641 30.9655 57.5459 31.4035 57.3289 31.7453C57.2328 31.8966 56.784 32.1707 56.7669 32.3335C56.7611 32.3881 57.1283 32.1621 57.1346 32.1576C57.4866 31.9029 57.8196 31.6232 58.1666 31.3619C58.6573 30.9923 59.1562 30.4597 59.7685 30.3009C60.1304 30.2071 60.4367 30.3673 60.7323 30.5688C61.3261 30.9734 61.8206 31.4887 62.3868 31.9291C62.9481 32.3657 63.5123 32.7912 64.1515 33.1109C64.6621 33.3662 65.2131 33.5428 65.7009 33.8409C65.944 33.9895 66.1544 34.1902 66.368 34.3767C66.5565 34.5413 66.7356 34.7109 66.9142 34.8861C67.0118 34.9818 67.0795 35.0452 67.077 34.8651C67.0662 34.0765 66.5913 33.2994 66.305 32.5778C66.1914 32.2915 66.1413 31.9865 66.0345 31.698C65.9539 31.4805 65.8461 31.2796 65.7771 31.0573C65.6421 30.6224 65.4058 30.2179 65.244 29.7915C65.0685 29.3287 64.9085 28.8632 64.7503 28.3944C64.6034 27.959 64.3661 26.5499 65.1626 27.4332C65.8617 28.2086 65.9572 29.399 66.2839 30.3482C66.4885 30.9424 66.8074 31.5047 66.9825 32.1077C67.0063 32.1898 67.0298 32.4453 67.0298 32.3598C67.0298 32.0498 66.9192 31.7518 66.8092 31.4669C66.3613 30.307 65.6401 29.1703 65.4725 27.9269C65.2985 26.6363 65.5336 25.3226 66.8512 24.8386C67.587 24.5683 68.3036 24.2347 69.0309 23.9405C69.6497 23.6902 70.1557 23.2616 70.7405 22.9478C71.4783 22.5519 72.2621 22.2155 73.0777 22.005C73.4645 21.9052 73.8557 21.8276 74.2516 21.7765C74.5058 21.7437 74.787 21.7565 75.0184 21.6347C75.142 21.5697 74.5018 21.2743 74.4433 21.2408C73.9983 20.9865 73.5036 20.7842 73.083 20.4897C72.89 20.3547 72.6845 20.2788 72.4658 20.1956C71.9816 20.0115 71.493 19.7631 70.99 19.6389C70.7261 19.5737 70.4777 19.5071 70.2205 19.4288C69.9831 19.3566 69.7075 19.252 69.4668 19.2135C68.708 19.0921 68.0253 18.6683 67.2399 18.6462C67.0642 18.6413 66.8969 18.5989 66.7199 18.5989C66.4443 18.5989 66.2333 18.7221 65.9872 18.8379C65.7801 18.9354 65.6 19.0433 65.4121 19.1662C65.2192 19.2923 65.4865 19.0893 65.5381 19.0611C66.0023 18.8076 66.5435 18.7153 67.056 18.6094C67.5931 18.4985 68.1101 18.4571 68.6553 18.4571C68.9994 18.4571 69.3297 18.775 69.5824 18.9771C69.7477 19.1094 70.0186 19.2122 70.0656 19.4235C70.1583 19.841 70.0815 20.2574 69.9027 20.6421C69.6846 21.1115 69.2715 21.4756 68.9258 21.8527C68.7513 22.043 68.5873 22.1822 68.3507 22.265C67.5713 22.5378 66.585 22.2222 65.8007 22.0864C64.8496 21.9218 63.9704 21.4273 63.4005 20.6421C62.9805 20.0634 62.3613 19.4697 62.1032 18.7985C61.9953 18.5182 61.6957 18.3092 61.5569 18.0317C61.4592 17.8361 61.378 17.616 61.2418 17.4408C61.1552 17.3295 61.0714 17.1165 61.016 16.9918C60.9429 16.8273 60.7862 16.6786 60.7455 16.4954C60.7133 16.3506 60.5035 16.3178 60.4225 16.1882C60.3345 16.0475 60.2193 15.9986 60.173 15.8363C60.1316 15.6914 60.1283 16.124 60.1283 16.1882C60.1283 16.3929 60.132 16.6336 59.9865 16.3063C59.9581 16.2423 59.8482 16.1466 59.8447 16.0936C59.8429 16.0665 59.836 16.3228 59.8552 16.3878C59.9182 16.6003 59.9392 16.7647 59.9392 16.9918C59.9392 17.4069 59.8515 17.9325 59.9419 18.339C59.9804 18.5123 60.0715 18.6634 60.0811 18.8353C60.0896 18.9883 60.1604 19.2384 60.2229 19.3789C60.3082 19.5709 60.309 19.7499 60.3174 19.9593C60.3204 20.0345 60.3759 20.3948 60.4356 20.4425C60.5267 20.5154 60.4997 20.8474 60.5065 20.9625C60.5165 21.1333 60.6321 21.376 60.6956 21.5507C60.8501 21.9757 61.1067 22.4608 61.4283 22.7824C61.5813 22.9354 61.7244 23.1208 61.9246 23.2209C62.2971 23.4072 62.7204 23.619 63.0459 23.8722C63.559 24.2713 64.1911 24.1768 64.7976 24.1768C65.2033 24.1768 65.5477 23.8521 65.8218 23.5781C66.3774 23.0224 66.7103 22.3026 67.077 21.6216C67.3158 21.1782 67.5419 20.7478 67.8123 20.3217C67.9333 20.1311 67.6258 20.3394 67.576 20.3689C67.1873 20.5996 66.7854 20.8183 66.4153 21.078C64.38 22.5061 63.1806 24.6078 62.1636 26.8213C61.8257 27.5568 61.4467 28.344 61.2838 29.1402C61.2309 29.399 60.9442 30.7391 61.2996 30.8787C61.7057 31.0382 62.2161 30.01 62.3448 29.781C62.536 29.4405 62.7106 29.0919 62.9068 28.7541C63.0368 28.5302 63.0045 29.1341 63.0171 29.219C63.0765 29.6223 63.1691 30.0199 63.2376 30.4217C63.3059 30.8217 63.3438 31.2447 63.495 31.6245C63.8036 32.3994 63.7696 31.2053 63.7681 30.968C63.7628 30.1081 63.5833 29.3689 63.2035 28.5992C62.9537 28.093 62.7372 27.4895 62.3343 27.0866C62.144 26.8963 61.3137 27.9099 61.1525 28.0687C60.8955 28.3219 60.6243 28.5591 60.3647 28.8093C60.1528 29.0134 60.2468 28.7615 60.2701 28.5887C60.427 27.4263 61.1154 26.493 61.4256 25.3848C61.588 24.805 60.9925 25.2637 60.8741 25.5004C60.7566 25.7355 60.5436 25.8994 60.4146 26.1359C60.2488 26.4399 60.0081 26.6918 59.8184 26.9763C59.5084 27.4414 58.9535 27.7133 58.5001 28.0293C57.9329 28.4247 57.2871 28.6877 56.6881 29.0246C56.3449 29.2177 55.9899 29.3895 55.6377 29.5656C55.3222 29.7234 54.9594 29.9586 54.6214 30.0567C53.7839 30.2998 53.0196 30.1405 52.2552 29.7547C51.7517 29.5006 51.3552 29.1355 51.0813 28.6386C50.9578 28.4143 50.8533 28.1298 50.8214 27.8744C50.7968 27.6779 50.9202 27.7235 51.0787 27.7536C51.5949 27.8515 52.0954 28.0214 52.6019 28.158C53.6505 28.4408 54.7168 28.6678 55.79 28.8356C56.2906 28.9138 56.7906 28.9595 57.2974 28.9511C57.4132 28.9492 57.4348 28.8916 57.4917 28.7988C57.6717 28.5055 57.8577 28.2652 57.9749 27.9348C58.0649 27.6813 58.1054 27.4121 58.1902 27.1575C58.2527 26.9702 58.3835 26.8712 58.5684 26.8712C58.7249 26.8712 58.3175 26.9706 58.2612 26.9894C57.8452 27.128 57.4678 27.3149 57.0348 27.4148C56.5732 27.5213 56.1854 27.5803 55.7112 27.5803C55.2897 27.5803 55.0332 27.3829 54.666 27.2494C54.4784 27.1812 54.2722 26.9946 54.1145 26.8712C53.9709 26.7588 53.7399 26.6535 53.6418 26.4931C53.4229 26.1348 52.8339 25.5352 52.397 25.4557C52.118 25.405 51.8224 25.6866 51.5934 25.7998C51.3128 25.9385 51.0231 26.0301 50.7111 26.0204C49.8269 25.9927 48.9306 25.5005 48.148 25.1248C47.4212 24.776 48.457 23.0854 48.689 22.6537C48.9653 22.1394 49.2529 21.6251 49.5634 21.1305C49.9119 20.5756 49.9983 19.9501 50.1281 19.3132C50.2685 18.6239 50.3541 17.9677 50.3434 17.2649C50.3317 16.4925 50.1364 16.1399 49.4899 15.7627C49.2101 15.5995 48.8382 15.5433 48.5314 15.4423C48.1689 15.3231 47.7838 15.2397 47.4127 15.1482C46.8248 15.0033 46.2168 14.9313 45.6164 14.8646C45.3562 14.8357 44.7512 14.6724 44.6237 14.9591C44.3213 15.6397 44.9744 16.4436 45.3564 16.9419C45.8838 17.6298 46.4003 18.3262 46.9189 19.0244C47.1814 19.3777 47.4041 19.7528 47.6543 20.1142C47.8484 20.3946 48.0711 20.6598 48.3055 20.9073C48.3327 20.936 48.5892 21.2485 48.5892 21.1121C48.5892 20.5258 48.3828 19.925 48.3108 19.3448C48.2268 18.6687 48.169 18.0036 48.169 17.3227C48.169 17.0982 48.2454 16.9302 47.9746 16.9471C47.6756 16.9658 47.4523 17.1636 47.5098 17.4802C47.5864 17.9012 49.6766 17.0074 49.8891 16.8972C50.1489 16.7625 50.6137 16.557 50.9106 16.6976C51.3279 16.8953 51.6197 17.0981 51.6197 17.5695C51.6197 17.779 51.7142 17.945 51.7142 18.1499C51.7142 18.3707 51.7615 18.605 51.7615 18.8353C51.7615 19.4463 51.7615 20.0573 51.7615 20.6683C51.7615 21.0906 51.8401 21.596 51.7379 22.005C51.6346 22.4181 51.7764 22.8712 51.7037 23.2892C51.6738 23.4616 51.4959 24.9288 51.2363 24.6101C50.8948 24.191 50.7213 23.6806 50.543 23.1789C50.4662 22.9629 50.3595 22.3972 50.2856 22.9215C50.2057 23.4892 50.1424 24.3554 50.8397 24.5103C50.9455 24.5338 51.0155 24.5995 51.1102 24.4972C51.1851 24.4163 51.1741 24.3034 51.2415 24.2241C51.2828 24.1756 51.3414 24.1388 51.3728 24.0823C51.4998 23.8538 51.5825 23.5049 51.7851 23.8696C51.8233 23.9383 51.8698 24.0167 51.9138 24.0718C51.98 24.1545 51.9506 23.8594 51.9506 23.8197C51.9506 23.5921 51.9506 23.3645 51.9506 23.1369C51.9506 23.0423 51.9506 22.9478 51.9506 22.8533C51.9506 22.6642 51.9472 23.2314 51.9506 23.4205C51.9586 23.8628 52.2423 24.319 52.4916 24.6679C52.5837 24.7969 52.682 25.0389 52.8277 25.1222C53.0689 25.26 53.0632 25.4882 53.3792 25.5004C53.4759 25.5041 53.9359 25.6483 53.9359 25.4767C53.9359 25.4143 53.9043 25.2221 53.9464 25.18C54.0037 25.1227 54.2354 25.1178 54.3141 25.1222C54.3872 25.1263 54.4204 25.6893 54.4795 25.784C54.6428 26.0453 54.9344 26.1737 55.2175 26.304C55.5311 26.4483 55.8669 26.6271 56.2154 26.6349C56.7511 26.6468 57.2658 26.8239 57.8068 26.8239C58.1133 26.8239 58.5441 26.7576 58.8258 26.6349C59.2868 26.4339 59.6865 26.2193 59.9603 25.763C60.1337 25.4738 60.3599 25.2348 60.5065 24.9331C60.6331 24.6724 60.7428 24.2529 60.7428 23.9641C60.7428 23.5932 60.8374 23.2341 60.8374 22.8638C60.8374 22.2814 60.7326 21.8646 60.3883 21.3879C60.2205 21.1555 59.9944 20.9231 59.7974 20.7261" stroke="#15E510" stroke-width="3" stroke-linecap="round"/>
<path d="M49.7762 32.78C49.7762 32.2206 49.879 31.5436 49.5424 31.0599C49.4188 30.8822 49.2305 30.9001 49.0356 30.8367C48.8936 30.7904 47.9982 30.3864 47.9825 30.5977C47.9391 31.1834 48.341 31.6162 48.7599 31.9711C48.8688 32.0634 49.902 32.6823 49.5214 32.1786C48.6158 30.98 46.8436 30.3691 45.4326 30.0409C44.6358 29.8556 43.8412 29.8965 43.027 29.8965C42.522 29.8965 41.9274 29.8017 41.4304 29.9333C41.255 29.9797 41.9797 30.343 42.0449 30.3797C42.8382 30.826 43.6424 31.1977 44.5082 31.4827C44.7008 31.5461 44.9415 31.6402 45.1489 31.6402C45.3063 31.6402 44.8682 31.4974 44.7235 31.4354C44.0415 31.1431 43.3253 30.954 42.6121 30.7579C41.9453 30.5745 41.2548 30.2907 40.6058 30.0383C40.4868 29.9921 40.006 29.8625 39.944 29.7074C39.9115 29.6263 39.7645 29.2982 39.8757 29.2347C40.0374 29.1423 40.1767 29.0196 40.3537 28.9537C40.7669 28.8 41.2179 28.7283 41.6404 28.5992C42.2097 28.4253 42.7122 28.2017 43.2529 27.9584C43.8812 27.6757 44.4937 27.271 45.1805 27.1653C45.8234 27.0664 46.4084 26.7673 47.045 26.6454C47.6101 26.5372 48.2248 26.5742 48.7992 26.5876C49.0508 26.5934 48.6995 27.1763 48.6417 27.2494C48.3335 27.6389 47.8339 27.9621 47.3654 28.1265C47.2507 28.1667 47.1259 28.1653 47.0135 28.1974C46.6619 28.2979 47.7089 28.4288 48.0666 28.5047C49.007 28.7041 49.9594 28.8414 50.8896 29.0877C51.0157 29.121 51.3844 29.2458 51.2678 29.1875C51.0521 29.0796 50.817 28.9942 50.5981 28.8907C49.9564 28.5874 49.3003 28.3167 48.6574 28.0162C48.6126 27.9952 47.8661 27.6213 48.0088 27.638C48.4268 27.6872 48.8606 27.9308 49.2194 28.1318C49.9226 28.5256 50.57 29.0324 51.0761 29.6628C51.6671 30.399 52.1894 31.3382 51.8009 32.2836C51.6247 32.7125 51.3179 33.1953 50.9185 33.4549C50.7777 33.5464 50.613 32.8831 50.5903 32.7642C50.5682 32.6489 50.6583 32.7127 50.669 32.7931C50.702 33.0406 50.6706 33.3028 50.6848 33.5521C50.747 34.6428 51.0221 35.5613 51.5147 36.5143C51.7739 37.0158 52.0303 37.5248 52.3655 37.9797C52.6204 38.3256 52.9117 38.6291 53.1691 38.9724C53.3087 39.1584 53.3079 39.3906 53.4422 39.5632C53.7632 39.9759 54.4174 38.2849 54.4533 38.1977C54.927 37.0451 55.2724 35.8506 55.7742 34.7076C55.8215 34.5998 55.8455 34.284 55.9108 34.3819C55.9776 34.4821 55.5706 35.1999 55.5352 35.2827C55.1179 36.259 54.698 37.2585 54.4139 38.2843C54.2356 38.9282 54.0164 39.5697 53.7941 40.2014C53.7403 40.3544 53.6294 40.6651 53.5 40.7686C53.4708 40.792 53.3852 40.8815 53.4737 40.8028C53.682 40.6176 53.8375 40.3712 53.9937 40.1436C55.8011 37.5105 57.1394 34.4887 57.7648 31.3619" stroke="#15E510" stroke-width="3" stroke-linecap="round"/>
<ellipse cx="56.5" cy="23" rx="5.5" ry="4" fill="#1D5E0C"/>
<path d="M56.8667 4.41791C56.8442 4.2383 56.5249 4.05807 56.4308 3.89794C56.3613 3.7798 55.7301 3.51978 55.8031 3.51978C56.1226 3.51978 56.4451 3.63725 56.7249 3.77714C56.831 3.83019 57.1628 4.01482 57.2448 3.85067" stroke="#139911" stroke-width="3" stroke-linecap="round"/>
<path d="M57.0558 2.71619C56.6986 2.71619 56.4622 2.89365 56.3914 3.21252C56.3541 3.38039 56.122 3.7941 55.9922 3.89794C55.8538 4.00867 55.6849 4.52413 55.6849 4.70153C55.6849 4.98087 55.6049 5.27666 55.5904 5.55239C55.5803 5.74359 55.5431 5.96845 55.5431 6.14327C55.5431 6.30403 55.4486 6.47253 55.4486 6.63961C55.4486 6.8087 55.3811 7.02805 55.5956 6.89697C55.9096 6.70508 56.1814 6.39971 56.373 6.09863C56.4569 5.96674 56.5601 5.79459 56.6566 5.67057C56.7501 5.55029 56.7379 5.35552 56.8457 5.24776C56.9629 5.13053 57.0872 5.02113 57.2212 4.91687C57.3243 4.83671 57.2496 5.43862 57.2422 5.50512C57.2143 5.7566 57.1557 6.01594 57.0925 6.26145C57.0467 6.43976 57.0906 6.64129 57.019 6.80243C56.944 6.97123 57.049 7.20682 56.998 7.38543C56.9331 7.61244 56.9271 7.91602 56.914 8.15225C56.8687 8.96687 56.8667 9.78837 56.8667 10.6103C56.8667 10.8344 56.8667 11.0585 56.8667 11.2826C56.8667 11.6076 56.9139 11.724 56.6303 11.4349C56.1125 10.9069 55.7316 10.2454 55.2595 9.6754C55.1917 9.59351 54.994 9.38982 54.9785 9.28148C54.9542 9.11141 54.9656 8.93882 54.9391 8.76676C54.9051 8.54537 54.9286 8.30248 54.9286 8.07872C54.9286 7.74246 54.8897 8.1508 54.884 8.27305C54.8669 8.64047 54.8764 9.01349 54.8813 9.38128C54.8873 9.81859 55.0353 10.2736 55.1072 10.7048C55.1598 11.0205 55.165 11.3198 55.165 11.6397C55.165 11.8506 55.077 11.5991 55.0494 11.5242C54.8965 11.1092 54.7971 10.7156 54.7133 10.2847C54.6351 9.88285 54.5504 9.53423 54.5504 9.12392C54.5504 8.74142 54.645 8.36995 54.645 7.98681C54.645 7.78109 54.645 7.57538 54.645 7.36967C54.645 7.02087 54.6685 8.06707 54.6949 8.41486C54.8165 10.0167 55.3113 11.54 55.0809 13.1524C54.9951 13.7531 54.7945 14.2937 54.7868 14.9014C54.7837 15.1427 54.7395 15.3787 54.7395 15.6209C54.7395 15.9279 54.7183 15.7588 54.666 15.5448C54.4258 14.5622 54.2398 13.4382 54.4323 12.4328C54.5437 11.8507 54.8417 11.3586 54.9969 10.7941C55.1774 10.1379 55.2122 9.44329 55.2122 8.76676C55.2122 8.52691 55.2122 8.28706 55.2122 8.04721C55.2122 7.82794 55.1413 7.65574 55.1203 7.44583C55.1082 7.32448 55.0752 6.9415 54.9286 6.90485C54.7156 6.8516 54.749 9.23946 54.7842 9.52046C54.9072 10.5045 55.175 11.4651 55.4853 12.3961C55.5652 12.6357 55.6687 12.8715 55.7532 13.113C55.8414 13.3651 55.8608 13.6119 55.9922 13.8483C56.071 13.9903 56.1376 14.2802 56.1603 14.4392C56.2113 14.7967 56.3782 14.2029 56.415 14.1083C56.4715 13.9631 56.5831 13.8898 56.5831 13.7301C56.5831 13.2644 56.5831 14.6615 56.5831 15.1272C56.5831 15.67 56.5831 16.2127 56.5831 16.7554C56.5831 17.3386 56.6303 15.5896 56.6303 15.0064C56.6303 14.6759 56.634 14.3825 56.7144 14.061C56.7286 14.0042 56.8048 13.508 56.7249 13.6829C56.6048 13.9456 56.6115 14.321 56.5594 14.6046C56.4963 14.9484 56.4456 15.3076 56.4413 15.6577C56.4322 16.3922 56.394 17.1249 56.394 17.8636C56.394 18.0887 56.4929 18.304 56.5332 18.5254C56.5421 18.5748 56.5299 18.7489 56.5253 18.7355C56.4379 18.483 56.3475 18.2183 56.2784 17.9608C56.1553 17.5018 55.9392 17.0864 55.7322 16.6609C55.6303 16.4513 55.5127 16.2744 55.3567 16.0989C55.261 15.9912 55.1925 15.8264 55.1545 16.0464C55.0284 16.7747 55.165 17.525 55.165 18.2576C55.165 18.7321 55.2595 19.2161 55.2595 19.6888C55.2595 20.1125 55.2595 20.5362 55.2595 20.9598C55.2595 21.2998 55.165 21.6333 55.165 21.9788C55.165 22.0511 55.1831 22.4517 55.1912 22.4436C55.3717 22.2632 55.5245 21.8612 55.6167 21.6242C55.8047 21.1408 56.0648 20.7062 56.2154 20.2166C56.2288 20.1733 56.2634 19.8017 56.2732 19.8017C56.4606 19.8017 56.6547 20.5385 56.7249 20.6683C56.8588 20.9159 56.9106 21.2014 57.0295 21.4562C57.09 21.5859 57.1521 21.7243 57.1976 21.8606C57.2315 21.9623 57.2921 22.2039 57.2921 21.9446C57.2921 21.1795 57.2366 20.4446 57.082 19.694C57.067 19.6212 57.049 19.2936 57.0558 19.5444C57.0631 19.8165 57.1965 20.0718 57.2895 20.3217C57.4116 20.6498 57.5124 21.0032 57.6598 21.3144C57.7014 21.4023 57.7648 21.5418 57.7648 21.64C57.7648 21.8978 57.758 21.1226 57.7175 20.8679C57.6507 20.4469 57.5552 20.0455 57.4103 19.6441C57.3535 19.4869 57.2921 19.3898 57.2921 19.224C57.2921 19.0524 57.2873 19.5673 57.2947 19.7387C57.312 20.135 57.3986 20.5283 57.518 20.9047C57.6451 21.3055 57.7847 21.7167 57.8961 22.118C57.9397 22.2747 57.9806 22.4554 57.9985 22.6169C58.0118 22.7362 58.0897 22.834 58.0957 22.9478C58.1119 23.2563 58.3499 23.5729 58.3321 23.8932C58.3148 24.2034 57.3961 24.1296 57.2448 24.1296C57.0194 24.1296 56.8215 24.1265 56.6067 24.1742C56.5045 24.1969 56.4899 24.2159 56.5358 24.1296C56.6364 23.9402 56.7457 23.8003 56.7958 23.5833C56.9176 23.0554 56.9986 22.5486 57.0085 22.0024C57.0189 21.4296 57.1412 20.8612 57.1503 20.2902C57.1586 19.7666 57.2108 19.3328 57.1135 18.788C56.905 17.6203 56.7567 16.4099 56.6802 15.2244C56.643 14.648 56.8086 14.1108 56.9639 13.5673C57.2982 12.3971 56.4413 15.9638 56.4413 17.1808C56.4413 17.7323 56.4413 18.2838 56.4413 18.8353C56.4413 19.3024 56.3966 19.7912 56.4885 20.2508C56.5343 20.4795 56.5741 20.6931 56.5831 20.9257C56.5855 20.9878 56.6303 21.1701 56.6303 21.0019C56.6303 20.2914 56.5533 19.591 56.5095 18.8826C56.4555 18.0089 56.4885 17.1262 56.4885 16.2512C56.4885 15.8371 56.4718 15.4162 56.5463 15.0064C56.598 14.7219 56.7438 14.4224 56.8299 14.1451C56.8779 13.9906 56.914 13.5053 56.914 13.6671C56.914 14.0115 56.7877 14.3211 56.7459 14.6598C56.6495 15.4409 56.6776 16.2433 56.6776 17.0285C56.6776 17.687 56.7249 19.6618 56.7249 19.0034C56.7249 17.4922 56.6776 15.9822 56.6776 14.4707C56.6776 14.1291 56.6462 13.8029 56.8089 13.4938C56.9174 13.2876 57.0461 13.1018 57.1398 12.8793C57.1661 12.8169 57.2378 12.4819 57.1293 12.5956C56.8126 12.9275 56.5659 13.3893 56.3283 13.78C55.9419 14.4155 55.7165 15.1714 55.5904 15.8993C55.4213 16.8754 55.4818 17.8925 55.6377 18.8668C55.7575 19.6157 55.8079 20.3794 55.9108 21.1305C55.9705 21.5663 56.1132 21.9736 56.2417 22.3911C56.2859 22.5348 56.3467 22.7021 56.3467 22.8533" stroke="#139911" stroke-width="3" stroke-linecap="round"/>
<path d="M58.2848 2.43255C58.2915 2.37889 58.3387 2.35831 58.3793 2.33801" stroke="#139911" stroke-width="3" stroke-linecap="round"/>
<path d="M57.623 2.9998C57.6736 3.00703 57.6266 3.08909 57.5994 3.08909C57.5647 3.08909 57.623 2.957 57.623 2.9289C57.623 2.83675 57.6589 2.66323 57.5757 2.62164" stroke="#139911" stroke-width="3" stroke-linecap="round"/>
<path d="M54.1282 16.0899C54.1282 16.771 54.2769 17.4185 54.2769 18.0897C54.2769 18.789 54.3141 19.5085 54.3141 20.2176" stroke="#139911" stroke-width="3" stroke-linecap="round"/>
<path d="M54.2398 21.7422C54.2274 21.5191 54.2026 20.8494 54.2026 21.0729" stroke="#139911" stroke-width="3" stroke-linecap="round"/>
<path d="M54.2026 21.11V21.296" stroke="#139911" stroke-width="3" stroke-linecap="round"/>
<path d="M54.2026 21.3332C54.2026 21.7236 54.2026 22.1141 54.2026 22.5045C54.2026 22.6596 54.4164 22.8186 54.4918 22.9694C54.5789 23.1435 54.5877 23.2536 54.779 23.3598C54.8518 23.4003 54.8958 23.466 54.9546 23.5189C55.0162 23.5744 55.1162 23.544 55.1777 23.5933C55.2312 23.6361 55.3778 23.6181 55.4483 23.6573C55.5336 23.7047 55.6884 23.6759 55.783 23.6759C56.0784 23.6759 56.3012 23.7857 56.5453 23.5272C56.6917 23.3722 56.6272 23.1805 56.8242 23.0272C56.9959 22.8937 57.0887 22.5808 57.1403 22.3744" stroke="#139911" stroke-width="3" stroke-linecap="round"/>
<path d="M57.1403 22.3744C57.1483 22.3106 57.1773 22.2127 57.2064 22.1513C57.2366 22.0876 57.2229 21.9458 57.2601 21.8992C57.3392 21.8003 57.289 21.5362 57.289 21.4075C57.289 21.2554 57.3262 21.1038 57.3262 20.9613C57.3262 20.7916 57.4388 20.6406 57.3985 20.4593C57.3662 20.3136 57.289 20.1648 57.289 20.013C57.289 19.9215 57.2354 19.8738 57.2167 19.7899C57.1963 19.698 57.2145 19.6128 57.1858 19.5193C57.1322 19.3453 57.2395 19.1201 57.1692 18.9532C57.1133 18.8205 57.1031 18.5567 57.1031 18.414C57.1031 17.6914 56.9916 16.9636 56.9916 16.2386C56.9916 15.8977 56.9916 15.5569 56.9916 15.216C56.9916 14.9124 57.0055 15.1914 57.0825 15.2904C57.1308 15.3525 57.1403 15.6746 57.1403 15.7552C57.1403 16.3211 57.1775 16.9347 57.1775 17.5216C57.1775 17.7289 57.0784 18.3009 57.2229 18.4615C57.3764 18.6321 57.2922 19.098 57.2539 19.3086C57.194 19.638 57.2408 20.0804 57.287 20.4035C57.3321 20.7192 57.5122 20.9884 57.5122 21.3042C57.5122 21.4517 57.4241 22.1403 57.5308 22.2256C57.616 22.2938 57.553 22.5222 57.6051 22.6161C57.6669 22.7273 57.6237 22.9543 57.6237 23.0809" stroke="#139911" stroke-width="3" stroke-linecap="round"/>
<defs>
<filter id="filter0_d_0_1" x="0" y="18" width="112" height="93" filterUnits="userSpaceOnUse" color-interpolation-filters="sRGB">
<feFlood flood-opacity="0" result="BackgroundImageFix"/>
<feColorMatrix in="SourceAlpha" type="matrix" values="0 0 0 0 0 0 0 0 0 0 0 0 0 0 0 0 0 0 127 0" result="hardAlpha"/>
<feOffset dy="4"/>
<feGaussianBlur stdDeviation="2"/>
<feComposite in2="hardAlpha" operator="out"/>
<feColorMatrix type="matrix" values="0 0 0 0 0 0 0 0 0 0 0 0 0 0 0 0 0 0 0.25 0"/>
<feBlend mode="normal" in2="BackgroundImageFix" result="effect1_dropShadow_0_1"/>
<feBlend mode="normal" in="SourceGraphic" in2="effect1_dropShadow_0_1" result="shape"/>
</filter>
</defs>
</svg>
